<?xml version="1.0" encoding="UTF-8" standalone="no"?>
<!-- Creator: CorelDRAW X7 -->

<svg
   xml:space="preserve"
   width="180.622mm"
   height="180.622mm"
   version="1.1"
   style="shape-rendering:geometricPrecision; text-rendering:geometricPrecision; image-rendering:optimizeQuality; fill-rule:evenodd; clip-rule:evenodd"
   viewBox="0 0 17990 17990"
   id="svg857"
   sodipodi:docname="blog.svg"
   inkscape:version="1.1.1 (c3084ef, 2021-09-22)"
   xmlns:inkscape="http://www.inkscape.org/namespaces/inkscape"
   xmlns:sodipodi="http://sodipodi.sourceforge.net/DTD/sodipodi-0.dtd"
   xmlns="http://www.w3.org/2000/svg"
   xmlns:svg="http://www.w3.org/2000/svg"><sodipodi:namedview
   id="namedview859"
   pagecolor="#ffffff"
   bordercolor="#999999"
   borderopacity="1"
   inkscape:pageshadow="0"
   inkscape:pageopacity="0"
   inkscape:pagecheckerboard="0"
   inkscape:document-units="mm"
   showgrid="false"
   showguides="true"
   inkscape:guide-bbox="true"
   inkscape:zoom="1.053224"
   inkscape:cx="469.03603"
   inkscape:cy="341.3329"
   inkscape:window-width="1920"
   inkscape:window-height="953"
   inkscape:window-x="21"
   inkscape:window-y="42"
   inkscape:window-maximized="0"
   inkscape:current-layer="svg857"><sodipodi:guide
     position="8995,17989.999"
     orientation="1,0"
     id="guide1530" /><sodipodi:guide
     position="17914.937,8982.4892"
     orientation="0,-1"
     id="guide1532" /></sodipodi:namedview>
 <defs
   id="defs826">
  <style
   type="text/css"
   id="style824">
   <![CDATA[
    .fil0 {fill:#333333}
    .fil1 {fill:white}
   ]]>
  </style>
 </defs>
 <g
   id="Livello_x0020_1"
   inkscape:label="Livello 1"
   inkscape:groupmode="layer">
  <metadata
   id="CorelCorpID_0Corel-Layer" />
  <path
   id="path6"
   class="fil0"
   d="M 8995,0 C 4028,0 0,4028 0,8995 c 0,4967 4028,8995 8995,8995 4967,0 8995,-4028 8995,-8995 C 17990,4028 13962,0 8995,0 Z" />
  
  
  
  
  
  
  
  
  
  
  
  
  
 </g>
<g
   id="g1270"
   style="fill:#ffffff"
   transform="matrix(1.2864959,0,0,1.2864959,-26477.963,-4587.282)"><path
     d="m 22330.584,7552.9587 c -140.547,28.1095 -267.039,175.6839 -291.635,340.8266 -10.541,80.8146 -17.568,962.7473 -10.541,1957.1177 10.541,1953.604 7.027,1907.926 200.28,2009.823 63.246,35.137 277.58,45.678 825.713,42.164 818.687,-3.514 962.748,-31.623 1275.465,-260.012 288.121,-210.821 502.456,-639.489 502.456,-1004.912 0,-214.334 -122.979,-569.215 -260.012,-748.4126 l -119.465,-158.1154 137.033,-193.2522 c 140.547,-203.7932 242.444,-516.5104 242.444,-741.3857 0,-344.3402 -224.876,-776.5224 -502.456,-983.8293 -298.663,-217.8479 -463.805,-256.4984 -1219.246,-267.0394 -375.963,-3.5137 -727.331,0 -780.036,7.0273 z m 1560.072,804.6319 c 115.952,84.3282 238.93,319.7445 238.93,456.7779 0,137.0334 -122.978,372.4497 -238.93,456.7779 -84.328,63.2462 -161.629,70.2735 -628.948,80.8146 l -537.592,10.541 V 8814.3685 8266.235 l 537.592,10.541 c 467.319,10.5411 544.62,17.5684 628.948,80.8146 z m 0,1827.1114 c 115.952,84.328 238.93,319.745 238.93,456.778 0,137.033 -122.978,372.45 -238.93,456.778 -84.328,63.246 -161.629,70.274 -628.948,80.815 l -537.592,10.541 v -548.134 -548.133 l 537.592,10.541 c 467.319,10.541 544.62,17.568 628.948,80.814 z"
     id="path983"
     style="fill:#ffffff;stroke:none;stroke-width:3.51368" /><path
     d="m 25591.276,7675.9374 -94.87,108.924 10.541,1640.8868 10.541,1637.3728 87.842,175.684 c 186.225,379.477 593.812,650.03 987.343,650.03 207.307,0 326.772,-70.273 379.477,-221.361 80.815,-224.876 -56.218,-414.614 -333.799,-467.319 -182.711,-31.623 -309.203,-108.924 -379.477,-224.876 -49.191,-87.842 -56.219,-270.553 -56.219,-1556.5582 0,-801.1182 -10.541,-1503.8534 -21.082,-1567.0996 -59.732,-284.6078 -411.1,-390.018 -590.297,-175.6838 z"
     id="path985"
     style="fill:#ffffff;stroke:none;stroke-width:3.51368" /><path
     d="m 28440.867,9397.6387 c -358.395,84.3283 -706.249,365.4224 -864.364,699.2213 -80.815,168.657 -91.356,238.93 -91.356,544.62 0,316.231 10.541,372.45 101.897,551.647 122.978,242.444 326.772,446.237 583.27,579.757 175.684,87.842 228.389,98.383 544.62,98.383 305.69,0 375.963,-10.541 544.62,-91.356 256.498,-122.978 477.86,-351.367 607.866,-625.434 189.738,-404.073 137.033,-906.529 -133.52,-1275.4646 -284.608,-386.5044 -832.741,-590.2976 -1293.033,-481.3737 z m 537.593,741.3853 c 312.717,158.116 404.072,579.757 186.224,836.255 -122.978,147.575 -260.012,210.821 -456.778,210.821 -600.838,0 -758.954,-825.714 -203.793,-1075.185 154.602,-66.76 298.663,-59.732 474.347,28.109 z"
     id="path987"
     style="fill:#ffffff;stroke:none;stroke-width:3.51368" /><path
     d="m 31508.306,9411.6935 c -780.036,217.8479 -1159.513,1085.7255 -790.577,1809.5435 112.438,224.875 428.669,505.969 667.599,593.811 238.93,91.356 660.571,98.383 850.309,21.082 66.76,-28.109 140.547,-52.705 158.116,-52.705 24.596,0 31.623,130.006 21.082,344.34 -14.055,386.505 -73.787,530.565 -274.067,664.085 -137.033,94.869 -407.586,108.924 -562.188,28.109 -154.602,-80.814 -277.58,-267.039 -302.176,-453.264 -42.164,-305.69 -256.499,-453.264 -498.942,-351.367 -172.17,70.273 -231.903,238.929 -182.711,512.996 56.218,302.176 172.17,512.997 400.559,723.818 274.066,249.471 509.483,333.799 899.501,316.23 375.963,-14.054 628.948,-130.006 878.419,-404.072 302.176,-330.286 326.772,-442.724 344.34,-1507.367 14.055,-1004.912 -10.541,-1278.979 -144.061,-1574.127 -242.443,-527.0518 -899.501,-825.7143 -1465.203,-671.1125 z m 516.511,688.6805 c 267.039,98.383 432.182,400.559 361.908,660.571 -73.787,274.067 -267.039,425.155 -544.619,425.155 -323.259,0 -558.675,-228.389 -558.675,-541.106 0,-400.559 382.991,-681.6534 741.386,-544.62 z"
     id="path989"
     style="fill:#ffffff;stroke:none;stroke-width:3.51368" /></g></svg>
