<?xml version="1.0" encoding="UTF-8"?>
<!DOCTYPE svg PUBLIC "-//W3C//DTD SVG 1.1//EN" "http://www.w3.org/Graphics/SVG/1.1/DTD/svg11.dtd">
<!-- Creator: CorelDRAW X7 -->
<svg xmlns="http://www.w3.org/2000/svg" xml:space="preserve" width="180.622mm" height="180.622mm" version="1.1" style="shape-rendering:geometricPrecision; text-rendering:geometricPrecision; image-rendering:optimizeQuality; fill-rule:evenodd; clip-rule:evenodd"
viewBox="0 0 17990 17990"
 xmlns:xlink="http://www.w3.org/1999/xlink">
 <defs>
  <style type="text/css">
   <![CDATA[
    .fil0 {fill:#333333}
    .fil1 {fill:white}
   ]]>
  </style>
 </defs>
 <g id="Livello_x0020_1">
  <metadata id="CorelCorpID_0Corel-Layer"/>
  <path id="path6" class="fil0" d="M8995 0c-4967,0 -8995,4028 -8995,8995 0,4967 4028,8995 8995,8995 4967,0 8995,-4028 8995,-8995 0,-4967 -4028,-8995 -8995,-8995z"/>
  <path class="fil1" d="M12386 4613l-310 0 0 -339c0,-429 -339,-777 -755,-777 -416,0 -754,348 -754,777l0 338 -775 0 0 -338c0,-429 -338,-777 -754,-777 -416,0 -754,348 -754,777l0 338 -775 0 0 -338c0,-429 -338,-777 -754,-777 -416,0 -754,348 -754,777l0 338 -397 0c-662,0 -1201,539 -1201,1201l0 6782c0,662 539,1201 1201,1201l6782 0c662,0 1201,-539 1201,-1201l0 -6782c0,-662 -539,-1200 -1201,-1200zm-1396 -339c0,-195 149,-353 331,-353 183,0 331,158 331,353l0 1384c0,194 -148,353 -331,353 -182,0 -331,-159 -331,-353l0 -1384zm-2283 0c0,-195 149,-353 331,-353 182,0 331,158 331,353l0 1384c0,194 -149,353 -331,353 -182,0 -331,-159 -331,-353l0 -1384zm-2283 0c0,-195 148,-353 331,-353 182,0 330,158 330,353l0 1384c0,194 -148,353 -330,353 -183,0 -331,-159 -331,-353l0 -1384zm6456 8321c0,273 -221,494 -494,494l-6782 0c-272,0 -494,-221 -494,-494l0 -6216 7770 0 0 6216z"/>
  <rect class="fil1" x="5797" y="7676" width="1195" height="1064"/>
  <rect class="fil1" x="7530" y="7676" width="1195" height="1063"/>
  <rect class="fil1" x="9264" y="7676" width="1195" height="1064"/>
  <rect class="fil1" x="10998" y="7676" width="1195" height="1063"/>
  <rect class="fil1" x="5797" y="9218" width="1195" height="1063"/>
  <rect class="fil1" x="7530" y="9218" width="1195" height="1063"/>
  <rect class="fil1" x="9264" y="9218" width="1195" height="1063"/>
  <rect class="fil1" x="10998" y="9218" width="1195" height="1063"/>
  <rect class="fil1" x="5797" y="10760" width="1195" height="1063"/>
  <rect class="fil1" x="7530" y="10760" width="1195" height="1063"/>
  <rect class="fil1" x="9264" y="10760" width="1195" height="1063"/>
  <rect class="fil1" x="10998" y="10760" width="1195" height="1063"/>
 </g>
</svg>
