<?xml version="1.0" encoding="UTF-8"?>
<!DOCTYPE svg PUBLIC "-//W3C//DTD SVG 1.1//EN" "http://www.w3.org/Graphics/SVG/1.1/DTD/svg11.dtd">
<!-- Creator: CorelDRAW X7 -->
<svg xmlns="http://www.w3.org/2000/svg" xml:space="preserve" width="180.822mm" height="180.822mm" version="1.1" style="shape-rendering:geometricPrecision; text-rendering:geometricPrecision; image-rendering:optimizeQuality; fill-rule:evenodd; clip-rule:evenodd"
viewBox="0 0 17642 17642"
 xmlns:xlink="http://www.w3.org/1999/xlink">
 <defs>
  <style type="text/css">
   <![CDATA[
    .str0 {stroke:white;stroke-width:19.5126}
    .fil1 {fill:#333333}
    .fil0 {fill:white}
   ]]>
  </style>
 </defs>
 <g id="Livello_x0020_1">
  <metadata id="CorelCorpID_0Corel-Layer"/>
  <circle class="fil0 str0" cx="8821" cy="8821" r="8811"/>
  <path class="fil1" d="M8821 10c-4869,0 -8811,3959 -8811,8841 0,3906 2524,7219 6024,8388 441,82 602,-191 602,-426 0,-210 -7,-766 -10,-1503 -2451,533 -2968,-1186 -2968,-1186 -401,-1021 -981,-1293 -981,-1293 -798,-548 62,-537 62,-537 885,61 1350,911 1350,911 785,1352 2062,961 2566,735 79,-572 306,-961 558,-1182 -1957,-221 -4014,-981 -4014,-4368 0,-966 342,-1754 907,-2372 -99,-224 -397,-1123 78,-2340 0,0 737,-237 2422,906 705,-196 1454,-294 2203,-299 749,5 1498,103 2203,299 1674,-1143 2412,-906 2412,-906 474,1217 176,2116 88,2340 562,618 903,1406 903,2372 0,3396 -2059,4143 -4020,4361 309,265 595,807 595,1636 0,1182 -11,2133 -11,2420 0,232 154,508 606,420 3525,-1161 6047,-4476 6047,-8376 0,-4882 -3945,-8841 -8811,-8841l0 0 0 0z"/>
 </g>
</svg>
