<?xml version="1.0" encoding="UTF-8"?>
<!DOCTYPE svg PUBLIC "-//W3C//DTD SVG 1.1//EN" "http://www.w3.org/Graphics/SVG/1.1/DTD/svg11.dtd">
<!-- Creator: CorelDRAW X7 -->
<svg xmlns="http://www.w3.org/2000/svg" xml:space="preserve" width="180.622mm" height="180.622mm" version="1.1" style="shape-rendering:geometricPrecision; text-rendering:geometricPrecision; image-rendering:optimizeQuality; fill-rule:evenodd; clip-rule:evenodd"
viewBox="0 0 18062 18062"
 xmlns:xlink="http://www.w3.org/1999/xlink">
 <defs>
  <style type="text/css">
   <![CDATA[
    .fil1 {fill:none}
    .fil0 {fill:#333333}
   ]]>
  </style>
 </defs>
 <g id="Livello_x0020_1">
  <metadata id="CorelCorpID_0Corel-Layer"/>
  <path class="fil0" d="M9031 376c-4990,0 -9031,3974 -9031,8875 0,3921 2587,7247 6175,8420 452,83 617,-191 617,-427 0,-211 -7,-769 -11,-1509 -2512,535 -3042,-1191 -3042,-1191 -411,-1024 -1005,-1298 -1005,-1298 -818,-550 63,-539 63,-539 907,62 1384,915 1384,915 805,1357 2114,965 2630,738 81,-574 314,-965 572,-1187 -2006,-222 -4114,-985 -4114,-4385 0,-969 350,-1760 930,-2381 -102,-225 -407,-1127 79,-2349 0,0 756,-238 2483,910 723,-197 1490,-295 2258,-300 768,5 1535,103 2258,300 1716,-1148 2472,-910 2472,-910 486,1222 181,2124 90,2349 576,621 926,1412 926,2381 0,3409 -2111,4159 -4120,4378 316,266 609,810 609,1642 0,1187 -11,2142 -11,2430 0,233 158,510 621,421 3613,-1165 6198,-4493 6198,-8408 0,-4901 -4043,-8875 -9031,-8875l0 0z"/>
  <circle class="fil1" cx="9031" cy="9031" r="9031"/>
 </g>
</svg>
