<?xml version="1.0" encoding="UTF-8"?>
<!DOCTYPE svg PUBLIC "-//W3C//DTD SVG 1.1//EN" "http://www.w3.org/Graphics/SVG/1.1/DTD/svg11.dtd">
<!-- Creator: CorelDRAW X7 -->
<svg xmlns="http://www.w3.org/2000/svg" xml:space="preserve" width="180.622mm" height="180.622mm" version="1.1" style="shape-rendering:geometricPrecision; text-rendering:geometricPrecision; image-rendering:optimizeQuality; fill-rule:evenodd; clip-rule:evenodd"
viewBox="0 0 18062 18062"
 xmlns:xlink="http://www.w3.org/1999/xlink">
 <defs>
  <style type="text/css">
   <![CDATA[
    .fil0 {fill:#333333}
    .fil1 {fill:white}
   ]]>
  </style>
 </defs>
 <g id="Livello_x0020_1">
  <metadata id="CorelCorpID_0Corel-Layer"/>
  <path id="path6" class="fil0" d="M9031 0c-4987,0 -9031,4044 -9031,9031 0,4987 4044,9031 9031,9031 4987,0 9031,-4044 9031,-9031 0,-4987 -4044,-9031 -9031,-9031z"/>
  <path class="fil1" d="M5575 5460c342,278 470,256 1113,214l6056 -364c129,0 22,-128 -21,-150l-1006 -727c-192,-149 -449,-321 -941,-278l-5865 428c-214,21 -257,128 -172,214l836 663zm363 1411l0 6373c0,342 171,471 557,449l6656 -385c385,-21 428,-256 428,-535l0 -6330c0,-278 -106,-427 -342,-406l-6956 406c-257,22 -343,150 -343,428l0 0zm6571 342c43,193 0,385 -193,407l-320 64 0 4705c-279,149 -535,235 -749,235 -343,0 -429,-107 -685,-428l-2098 -3293 0 3186 664 150c0,0 0,385 -536,385l-1477 85c-42,-85 0,-299 150,-342l385 -106 1 -4214 -535 -42c-43,-193 63,-471 363,-492l1584 -107 2184 3336 0 -2951 -557 -64c-43,-236 128,-407 342,-428l1477 -86zm-8091 -3208l6101 -449c749,-64 942,-21 1412,321l1948 1369c321,235 428,299 428,556l0 7506c0,471 -171,749 -770,792l-7085 427c-450,22 -664,-42 -899,-342l-1434 -1860c-257,-343 -364,-599 -364,-899l0 -6672c0,-385 171,-706 663,-749l0 0z"/>
 </g>
</svg>
